<?xml version="1.0" encoding="UTF-8" standalone="no"?>
<svg style="border:1px solid black;" xmlns="http://www.w3.org/2000/svg" xmlns:cc="http://creativecommons.org/ns#" xmlns:dc="http://purl.org/dc/elements/1.1/" xmlns:rdf="http://www.w3.org/1999/02/22-rdf-syntax-ns#" xmlns:svg="http://www.w3.org/2000/svg" id="svg2" width="1866.6667" height="1306.6667" version="1.1" viewBox="0 0 625 30.6667" xml:space="preserve">
    <g id="g10">
        <g id="g12" transform="scale(0.2, 0.2) rotate(180) translate(-3100 -200)">
            <path id="path16" d="m 1170,0 c -69.81,-109.67 0,-309.1 0,-309.1 0,0 -239.32,189.45 -139.61,508.54 74.8,239.31 393.68,276.7 548.42,280.42 v 218.13 c -747.84,29.92 -887.43,-508.53 -887.43,-508.53 -339.03,129.63 -588.31,508.53 -588.31,508.53 29.91,-907.38 538.44,-1256.37 538.44,-1256.37 -29.91,89.74 0,139.59 0,139.59 309.11,-448.7 937.3,-488.58 937.3,-488.58 v 1030.5 c -127.38,-12.1 -358.79,-44.5 -408.81,-123.13" style="fill:#ff0010;fill-opacity:1;fill-rule:nonzero;stroke:none"/>
            <path id="path18" d="m 1954.81,0 c 69.8,-109.67 0,-309.1 0,-309.1 0,0 239.3,189.45 139.6,508.54 -74.8,239.31 -393.68,276.7 -548.42,280.42 v 218.13 c 747.84,29.92 887.43,-508.53 887.43,-508.53 339.03,129.63 588.32,508.53 588.32,508.53 -29.92,-907.38 -538.45,-1256.37 -538.45,-1256.37 29.91,89.74 0,139.59 0,139.59 -309.11,-448.7 -937.3,-488.58 -937.3,-488.58 v 1030.5 c 127.38,-12.1 358.79,-44.5 408.82,-123.13" style="fill:#800000;fill-opacity:1;fill-rule:nonzero;stroke:none"/>
        </g>
    </g>
</svg>
