<?xml version="1.0" encoding="UTF-8" standalone="no"?>
<svg xmlns="http://www.w3.org/2000/svg" xmlns:cc="http://creativecommons.org/ns#" xmlns:dc="http://purl.org/dc/elements/1.1/" xmlns:rdf="http://www.w3.org/1999/02/22-rdf-syntax-ns#" xmlns:svg="http://www.w3.org/2000/svg" id="svg2" width="333.33331" height="413.33331" version="1.1" viewBox="0 0 333.33331 413.33331" xml:space="preserve">
    <defs id="defs6">
        <clipPath id="clipPath38" clipPathUnits="userSpaceOnUse">
            <path id="path36" d="m 4375.4,1202.2 c 0,-50.68 -30.79,-91.76 -68.76,-91.76 v 0 c -37.98,0 -68.77,41.08 -68.77,91.76 v 240.02 c 0,50.7 30.79,91.78 68.77,91.78 v 0 c 37.97,0 68.76,-41.08 68.76,-91.78 z"/>
        </clipPath>
        <linearGradient id="linearGradient48" x1="0" x2="1" y1="0" y2="0" gradientTransform="matrix(137.529,0,0,-137.529,4237.87,1322.23)" gradientUnits="userSpaceOnUse" spreadMethod="pad">
            <stop id="stop40" offset="0" style="stop-opacity:1;stop-color:#91411c"/>
            <stop id="stop42" offset="0.49" style="stop-opacity:1;stop-color:#91411c"/>
            <stop id="stop44" offset="0.5" style="stop-opacity:1;stop-color:#6a3317"/>
            <stop id="stop46" offset="1" style="stop-opacity:1;stop-color:#6a3317"/>
        </linearGradient>
        <clipPath id="clipPath60" clipPathUnits="userSpaceOnUse">
            <path id="path58" d="m 4602.08,928.859 c 0,-50.699 -30.79,-91.769 -68.74,-91.769 v 0 c -37.98,0 -68.77,41.07 -68.77,91.769 v 240.031 c 0,50.68 30.79,91.75 68.77,91.75 v 0 c 37.95,0 68.74,-41.07 68.74,-91.75 z"/>
        </clipPath>
        <linearGradient id="linearGradient70" x1="0" x2="1" y1="0" y2="0" gradientTransform="matrix(137.51,0,0,-137.51,4464.57,1048.87)" gradientUnits="userSpaceOnUse" spreadMethod="pad">
            <stop id="stop62" offset="0" style="stop-opacity:1;stop-color:#91411c"/>
            <stop id="stop64" offset="0.49" style="stop-opacity:1;stop-color:#91411c"/>
            <stop id="stop66" offset="0.5" style="stop-opacity:1;stop-color:#6a3317"/>
            <stop id="stop68" offset="1" style="stop-opacity:1;stop-color:#6a3317"/>
        </linearGradient>
        <clipPath id="clipPath82" clipPathUnits="userSpaceOnUse">
            <path id="path80" d="m 4942.15,1121.81 c 0,-50.7 -30.82,-91.76 -68.77,-91.76 v 0 c -37.99,0 -68.77,41.06 -68.77,91.76 v 240.03 c 0,50.69 30.78,91.75 68.77,91.75 v 0 c 37.95,0 68.77,-41.06 68.77,-91.75 z"/>
        </clipPath>
        <linearGradient id="linearGradient92" x1="0" x2="1" y1="0" y2="0" gradientTransform="matrix(137.539,0,0,-137.539,4804.61,1241.82)" gradientUnits="userSpaceOnUse" spreadMethod="pad">
            <stop id="stop84" offset="0" style="stop-opacity:1;stop-color:#91411c"/>
            <stop id="stop86" offset="0.49" style="stop-opacity:1;stop-color:#91411c"/>
            <stop id="stop88" offset="0.5" style="stop-opacity:1;stop-color:#6a3317"/>
            <stop id="stop90" offset="1" style="stop-opacity:1;stop-color:#6a3317"/>
        </linearGradient>
        <clipPath id="clipPath106" clipPathUnits="userSpaceOnUse">
            <path id="path104" d="m 2638.24,1175.21 c 0.01,30.05 -54.36,118.44 -54.36,118.44 0,0 -54.43,-88.34 -54.44,-118.41 -0.03,-30.03 24.34,-54.4 54.38,-54.42 30.05,0 54.4,24.36 54.42,54.39 z m 53.32,-22.4 c 3.54,0 6.41,2.85 6.41,6.39 l 0.06,185.62 c 0,3.52 -2.87,6.4 -6.39,6.39 -3.54,0.01 -6.4,-2.85 -6.4,-6.39 l -0.06,-185.62 c 0,-3.52 2.85,-6.39 6.38,-6.39 z m -36.24,-1.07 c 3.52,0 6.38,2.89 6.38,6.4 l 0.06,186.69 c 0,3.55 -2.86,6.4 -6.38,6.4 -3.54,0 -6.42,-2.85 -6.42,-6.4 l -0.06,-155.28 c 1.37,-5.37 2.14,-10.21 2.14,-14.34 -0.01,-5.7 -0.79,-11.21 -2.14,-16.5 v -0.57 c 0,-3.51 2.85,-6.4 6.42,-6.4 z m -29.83,193.09 c 0,3.55 -2.87,6.42 -6.38,6.42 -3.55,0 -6.41,-2.86 -6.41,-6.42 l -0.03,-75.01 c 4.1,-7.34 8.49,-15.45 12.77,-23.83 z m -70.39,0.03 c 0,3.54 -2.88,6.4 -6.41,6.4 -3.53,0 -6.4,-2.86 -6.4,-6.4 l -0.03,-98.84 c 4.3,8.37 8.69,16.47 12.82,23.82 z m -42.74,-193.06 c 3.53,0 6.39,2.87 6.39,6.39 v 0.58 c -1.34,5.29 -2.12,10.78 -2.12,16.48 0,4.11 0.78,8.97 2.14,14.32 l 0.04,155.31 c 0,3.54 -2.86,6.39 -6.38,6.39 -3.54,0 -6.43,-2.85 -6.43,-6.39 l -0.04,-186.69 c 0,-3.52 2.84,-6.39 6.4,-6.39 z m -36.29,1.08 c 3.54,0 6.41,2.86 6.41,6.38 l 0.07,185.62 c 0,3.56 -2.86,6.41 -6.39,6.41 -3.54,0 -6.41,-2.85 -6.41,-6.4 l -0.08,-185.63 c 0,-3.52 2.88,-6.39 6.4,-6.38 z m 119.72,-439.849 c -1.42,-13.691 -1.85,-28.883 -1.85,-41.82 -0.01,-12.879 0.38,-23.5 0.61,-28.422 7.91,0.813 31.04,3.699 54.32,11.82 28.82,10.051 56.73,27.661 57.61,57.692 0.83,24.961 1.76,58.918 2.06,69.949 -8.41,-2.051 -30.71,-7.859 -53.39,-17.391 -28.85,-11.949 -57.45,-30.257 -59.36,-51.828 z m -76.36,51.86 c -22.67,9.558 -44.99,15.39 -53.38,17.441 0.27,-11.023 1.2,-44.992 2.01,-69.941 0.86,-30.039 28.76,-47.672 57.58,-57.731 23.28,-8.14 46.4,-11.09 54.29,-11.898 0.24,4.918 0.65,15.57 0.65,28.449 0.02,12.937 -0.41,28.129 -1.82,41.848 -1.9,21.543 -30.51,39.882 -59.33,51.832 z m 76.4,69.781 c -1.45,-13.723 -1.85,-28.902 -1.85,-41.871 -0.02,-12.891 0.39,-23.512 0.61,-28.403 7.91,0.813 31.04,3.723 54.31,11.813 28.83,10.07 56.73,27.687 57.61,57.738 0.85,24.93 1.78,58.871 2.05,69.922 -8.37,-2.031 -30.68,-7.859 -53.37,-17.402 -28.85,-11.957 -57.46,-30.25 -59.36,-51.797 z m -76.37,51.828 c -22.68,9.559 -44.98,15.422 -53.37,17.461 0.28,-11.031 1.19,-45 2.03,-69.961 0.86,-30.02 28.75,-47.68 57.56,-57.73 23.27,-8.149 46.39,-11.079 54.31,-11.899 0.22,4.918 0.62,15.539 0.62,28.43 0.03,12.969 -0.4,28.179 -1.82,41.871 -1.89,21.566 -30.48,39.867 -59.33,51.828 z m 76.4,67.641 c -1.43,-13.711 -1.85,-28.903 -1.87,-41.852 0,-12.867 0.42,-23.508 0.64,-28.398 7.9,0.82 31.05,3.711 54.3,11.789 28.83,10.07 56.74,27.699 57.65,57.742 0.82,24.937 1.75,58.878 2.04,69.938 -8.39,-2.05 -30.69,-7.89 -53.39,-17.42 -28.86,-11.96 -57.47,-30.249 -59.37,-51.799 z M 2519.5,1006 c -22.66,9.53 -44.97,15.41 -53.36,17.44 0.29,-11.04 1.19,-44.999 2.02,-69.94 0.83,-30.059 28.74,-47.691 57.57,-57.762 23.26,-8.109 46.37,-11.058 54.29,-11.859 0.21,4.891 0.63,15.543 0.63,28.41 0,12.961 -0.42,28.16 -1.8,41.852 -1.91,21.558 -30.5,39.879 -59.35,51.859 z m 76.39,67.62 c -1.42,-13.7 -1.84,-28.89 -1.85,-41.86 0,-12.86 0.4,-23.51 0.62,-28.4 7.91,0.82 31.06,3.71 54.31,11.83 28.85,10.04 56.76,27.66 57.63,57.7 0.83,24.94 1.75,58.89 2.06,69.95 -8.42,-2.05 -30.71,-7.88 -53.38,-17.41 -28.87,-11.95 -57.47,-30.25 -59.39,-51.81 z m -17.03,0 c 1.42,-13.7 1.84,-28.91 1.84,-41.86 0,-12.87 -0.42,-23.52 -0.65,-28.4 -7.9,0.81 -31.03,3.73 -54.29,11.87 -28.83,10.06 -56.69,27.71 -57.59,57.74 -0.79,24.96 -1.7,58.91 -2,69.94 8.4,-2.03 30.71,-7.89 53.38,-17.44 28.83,-11.97 57.44,-30.29 59.31,-51.85 z"/>
        </clipPath>
        <linearGradient id="linearGradient116" x1="0" x2="1" y1="0" y2="0" gradientTransform="matrix(242.612,0,0,-242.612,2466.05,997.03)" gradientUnits="userSpaceOnUse" spreadMethod="pad">
            <stop id="stop108" offset="0" style="stop-opacity:1;stop-color:#f9d905"/>
            <stop id="stop110" offset="0.5" style="stop-opacity:1;stop-color:#f8990f"/>
            <stop id="stop112" offset="0.5" style="stop-opacity:1;stop-color:#f8990f"/>
            <stop id="stop114" offset="1" style="stop-opacity:1;stop-color:#f8990f"/>
        </linearGradient>
        <clipPath id="clipPath128" clipPathUnits="userSpaceOnUse">
            <path id="path126" d="m 2963.53,1293.51 c 0.01,30.04 -54.36,118.42 -54.36,118.42 0,0 -54.42,-88.34 -54.44,-118.39 -0.03,-30.04 24.34,-54.42 54.38,-54.43 30.05,0 54.41,24.35 54.42,54.4 z m 53.33,-22.42 c 3.53,0 6.4,2.87 6.4,6.4 l 0.06,185.62 c 0,3.52 -2.87,6.4 -6.4,6.38 -3.53,0.02 -6.39,-2.85 -6.39,-6.38 l -0.06,-185.62 c 0,-3.53 2.85,-6.4 6.39,-6.4 z m -36.24,-1.07 c 3.51,0 6.37,2.89 6.37,6.42 l 0.06,186.68 c 0,3.54 -2.86,6.4 -6.38,6.4 -3.54,0 -6.42,-2.86 -6.42,-6.4 l -0.06,-155.28 c 1.37,-5.37 2.15,-10.22 2.15,-14.33 -0.02,-5.71 -0.79,-11.22 -2.15,-16.51 v -0.56 c 0,-3.53 2.85,-6.42 6.43,-6.42 z m -29.84,193.1 c 0,3.54 -2.87,6.41 -6.39,6.41 -3.54,0 -6.4,-2.85 -6.4,-6.41 l -0.03,-75.01 c 4.1,-7.35 8.49,-15.45 12.77,-23.83 z m -70.39,0.03 c 0,3.54 -2.88,6.4 -6.42,6.4 -3.52,0 -6.39,-2.86 -6.39,-6.4 l -0.03,-98.85 c 4.31,8.38 8.69,16.48 12.82,23.82 z m -42.74,-193.07 c 3.53,0 6.39,2.88 6.39,6.4 v 0.58 c -1.33,5.28 -2.12,10.78 -2.12,16.49 0,4.1 0.79,8.95 2.14,14.3 l 0.04,155.31 c 0,3.54 -2.86,6.41 -6.39,6.41 -3.53,0 -6.42,-2.87 -6.42,-6.41 l -0.04,-186.68 c 0,-3.52 2.84,-6.4 6.4,-6.4 z m -36.29,1.09 c 3.54,0 6.41,2.85 6.41,6.38 l 0.07,185.61 c 0,3.56 -2.86,6.42 -6.39,6.42 -3.54,0 -6.41,-2.86 -6.41,-6.4 l -0.08,-185.63 c 0,-3.53 2.88,-6.4 6.4,-6.38 z m 119.71,-439.85 c -1.41,-13.691 -1.84,-28.871 -1.84,-41.82 -0.01,-12.879 0.38,-23.512 0.6,-28.418 7.91,0.797 31.05,3.699 54.33,11.809 28.82,10.05 56.73,27.691 57.61,57.718 0.84,24.95 1.77,58.911 2.07,69.942 -8.42,-2.051 -30.71,-7.86 -53.4,-17.403 -28.85,-11.957 -57.45,-30.257 -59.37,-51.828 z m -76.34,51.871 c -22.68,9.539 -45,15.391 -53.39,17.438 0.27,-11.02 1.2,-44.988 2.01,-69.938 0.86,-30.031 28.76,-47.691 57.58,-57.742 23.28,-8.148 46.39,-11.078 54.29,-11.898 0.24,4.91 0.65,15.57 0.65,28.449 0.02,12.949 -0.41,28.141 -1.82,41.852 -1.9,21.539 -30.51,39.867 -59.32,51.839 z m 76.39,69.758 c -1.44,-13.707 -1.84,-28.89 -1.84,-41.859 -0.03,-12.879 0.38,-23.5 0.6,-28.399 7.91,0.829 31.05,3.731 54.31,11.809 28.83,10.059 56.73,27.68 57.61,57.73 0.85,24.942 1.77,58.88 2.05,69.93 -8.37,-2.04 -30.69,-7.86 -53.37,-17.39 -28.85,-11.969 -57.45,-30.258 -59.36,-51.821 z m -76.36,51.841 c -22.69,9.56 -44.98,15.42 -53.37,17.46 0.27,-11.04 1.18,-45 2.02,-69.961 0.86,-30.019 28.75,-47.68 57.57,-57.73 23.26,-8.129 46.37,-11.071 54.3,-11.879 0.22,4.89 0.62,15.531 0.62,28.41 0.03,12.969 -0.4,28.18 -1.82,41.859 -1.89,21.571 -30.48,39.879 -59.32,51.841 z m 76.39,67.63 c -1.43,-13.7 -1.85,-28.88 -1.86,-41.84 0,-12.87 0.42,-23.51 0.63,-28.4 7.9,0.82 31.05,3.71 54.3,11.79 28.83,10.07 56.74,27.69 57.66,57.73 0.82,24.95 1.74,58.91 2.03,69.94 -8.39,-2.05 -30.69,-7.88 -53.38,-17.4 -28.87,-11.96 -57.47,-30.26 -59.38,-51.82 z m -76.36,51.87 c -22.66,9.53 -44.98,15.41 -53.36,17.45 0.29,-11.06 1.2,-45.02 2.02,-69.95 0.84,-30.07 28.75,-47.7 57.57,-57.77 23.26,-8.1 46.37,-11.05 54.29,-11.85 0.22,4.88 0.64,15.54 0.64,28.41 0,12.96 -0.42,28.15 -1.81,41.84 -1.9,21.57 -30.5,39.88 -59.35,51.87 z m 76.39,67.62 c -1.41,-13.71 -1.83,-28.89 -1.85,-41.86 0,-12.86 0.41,-23.51 0.62,-28.41 7.91,0.83 31.07,3.71 54.31,11.84 28.85,10.04 56.76,27.65 57.62,57.69 0.84,24.95 1.76,58.9 2.08,69.96 -8.43,-2.05 -30.72,-7.89 -53.39,-17.42 -28.87,-11.95 -57.47,-30.24 -59.39,-51.8 z m -17.03,0 c 1.42,-13.71 1.84,-28.9 1.84,-41.86 0,-12.88 -0.42,-23.53 -0.65,-28.41 -7.9,0.82 -31.03,3.73 -54.3,11.88 -28.81,10.05 -56.68,27.71 -57.57,57.74 -0.8,24.95 -1.71,58.92 -2.01,69.94 8.4,-2.03 30.71,-7.9 53.37,-17.44 28.84,-11.96 57.45,-30.29 59.32,-51.85 z"/>
        </clipPath>
        <linearGradient id="linearGradient138" x1="0" x2="1" y1="0" y2="0" gradientTransform="matrix(242.617,0,0,-242.617,2791.34,1115.31)" gradientUnits="userSpaceOnUse" spreadMethod="pad">
            <stop id="stop130" offset="0" style="stop-opacity:1;stop-color:#fbc710"/>
            <stop id="stop132" offset="0.5" style="stop-opacity:1;stop-color:#f49f0f"/>
            <stop id="stop134" offset="0.5" style="stop-opacity:1;stop-color:#f49f0f"/>
            <stop id="stop136" offset="1" style="stop-opacity:1;stop-color:#f49f0f"/>
        </linearGradient>
        <clipPath id="clipPath162" clipPathUnits="userSpaceOnUse">
            <path id="path160" d="m 913.184,1448.41 c 177.436,0 321.266,-143.85 321.266,-321.28 0,-177.419 -143.83,-321.239 -321.266,-321.239 -177.446,0 -321.254,143.82 -321.254,321.239 0,177.43 143.808,321.28 321.254,321.28 z"/>
        </clipPath>
        <linearGradient id="linearGradient172" x1="0" x2="1" y1="0" y2="0" gradientTransform="matrix(642.524,0,0,-642.524,591.929,1127.15)" gradientUnits="userSpaceOnUse" spreadMethod="pad">
            <stop id="stop164" offset="0" style="stop-opacity:1;stop-color:#8dcf24"/>
            <stop id="stop166" offset="0.49" style="stop-opacity:1;stop-color:#8dcf24"/>
            <stop id="stop168" offset="0.5" style="stop-opacity:1;stop-color:#6dab2e"/>
            <stop id="stop170" offset="1" style="stop-opacity:1;stop-color:#6dab2e"/>
        </linearGradient>
        <clipPath id="clipPath186" clipPathUnits="userSpaceOnUse">
            <path id="path184" d="m 4540.76,2292.5 h 106.01 v 311.01 h -106.01 z"/>
        </clipPath>
        <linearGradient id="linearGradient196" x1="0" x2="1" y1="0" y2="0" gradientTransform="matrix(106.006,0,0,-106.006,4540.76,2448)" gradientUnits="userSpaceOnUse" spreadMethod="pad">
            <stop id="stop188" offset="0" style="stop-opacity:1;stop-color:#91411c"/>
            <stop id="stop190" offset="0.49" style="stop-opacity:1;stop-color:#91411c"/>
            <stop id="stop192" offset="0.5" style="stop-opacity:1;stop-color:#6a3317"/>
            <stop id="stop194" offset="1" style="stop-opacity:1;stop-color:#6a3317"/>
        </linearGradient>
        <clipPath id="clipPath210" clipPathUnits="userSpaceOnUse">
            <path id="path208" d="m 4705.37,2609.14 c -61.62,-61.65 -161.54,-61.65 -223.15,0 l -148.8,148.77 c -65.71,65.67 -79.12,167.85 -32.66,248.23 l 214.07,370.5 c 35.09,60.75 122.81,60.75 157.88,0 l 214.06,-370.5 c 46.5,-80.38 33.07,-182.56 -32.61,-248.23 z"/>
        </clipPath>
        <linearGradient id="linearGradient220" x1="0" x2="1" y1="0" y2="0" gradientTransform="matrix(641.035,0,0,-641.035,4273.26,2992.55)" gradientUnits="userSpaceOnUse" spreadMethod="pad">
            <stop id="stop212" offset="0" style="stop-opacity:1;stop-color:#8dcf24"/>
            <stop id="stop214" offset="0.49" style="stop-opacity:1;stop-color:#8dcf24"/>
            <stop id="stop216" offset="0.5" style="stop-opacity:1;stop-color:#6dab2e"/>
            <stop id="stop218" offset="1" style="stop-opacity:1;stop-color:#6dab2e"/>
        </linearGradient>
        <clipPath id="clipPath230" clipPathUnits="userSpaceOnUse">
            <path id="path228" d="m 4461.04,2593.3 c -1.82,-39.47 -35.3,-70 -74.75,-68.17 l -95.25,4.52 c -42.04,1.97 -77.68,32.04 -86.68,73.21 l -41.3,189.41 c -6.83,31.09 22.58,57.87 52.88,48.24 l 184.77,-58.87 c 40.11,-12.78 66.77,-51.08 64.79,-93.13 z"/>
        </clipPath>
        <linearGradient id="linearGradient240" x1="0" x2="1" y1="0" y2="0" gradientTransform="matrix(205.313,205.313,205.313,-205.313,4202.71,2583.69)" gradientUnits="userSpaceOnUse" spreadMethod="pad">
            <stop id="stop232" offset="0" style="stop-opacity:1;stop-color:#8dcf24"/>
            <stop id="stop234" offset="0.49" style="stop-opacity:1;stop-color:#8dcf24"/>
            <stop id="stop236" offset="0.5" style="stop-opacity:1;stop-color:#6dab2e"/>
            <stop id="stop238" offset="1" style="stop-opacity:1;stop-color:#6dab2e"/>
        </linearGradient>
        <clipPath id="clipPath250" clipPathUnits="userSpaceOnUse">
            <path id="path248" d="m 4718.5,2573.55 c 1.48,-31.59 28.26,-56.01 59.81,-54.54 l 76.19,3.58 c 33.67,1.6 62.14,25.66 69.34,58.59 l 33.07,151.55 c 5.4,24.86 -18.09,46.27 -42.31,38.58 l -147.82,-47.1 c -32.07,-10.26 -53.39,-40.85 -51.82,-74.48 z"/>
        </clipPath>
        <linearGradient id="linearGradient260" x1="0" x2="1" y1="0" y2="0" gradientTransform="matrix(-164.236,164.236,-164.236,-164.236,4925.18,2565.85)" gradientUnits="userSpaceOnUse" spreadMethod="pad">
            <stop id="stop252" offset="0" style="stop-opacity:1;stop-color:#6dab2e"/>
            <stop id="stop254" offset="0.5" style="stop-opacity:1;stop-color:#6dab2e"/>
            <stop id="stop256" offset="0.51" style="stop-opacity:1;stop-color:#8dcf24"/>
            <stop id="stop258" offset="1" style="stop-opacity:1;stop-color:#8dcf24"/>
        </linearGradient>
        <clipPath id="clipPath272" clipPathUnits="userSpaceOnUse">
            <path id="path270" d="m 2911.31,2292.5 -278.44,783.71 -48.19,46.76 -8.12,-74.76 c 0,0 -21.13,89.38 -21.13,84.5 0,-4.88 -37.38,-126.76 -37.38,-118.62 0,6.67 -7.69,48.53 -10.43,63.18 L 2228.8,2292.5 Z"/>
        </clipPath>
        <linearGradient id="linearGradient282" x1="0" x2="1" y1="0" y2="0" gradientTransform="matrix(682.505,0,0,-682.505,2228.8,2712.71)" gradientUnits="userSpaceOnUse" spreadMethod="pad">
            <stop id="stop274" offset="0" style="stop-opacity:1;stop-color:#247e3a"/>
            <stop id="stop276" offset="0.5" style="stop-opacity:1;stop-color:#1d582b"/>
            <stop id="stop278" offset="0.5" style="stop-opacity:1;stop-color:#1d582b"/>
            <stop id="stop280" offset="1" style="stop-opacity:1;stop-color:#1d582b"/>
        </linearGradient>
        <clipPath id="clipPath292" clipPathUnits="userSpaceOnUse">
            <path id="path290" d="m 2555.43,3132.71 c 0,4.88 21.13,-84.5 21.13,-84.5 l 8.12,74.76 48.19,-46.76 -62.83,176.76 -62.42,-175.7 c 2.74,-14.65 10.43,-56.51 10.43,-63.2 0,-8.12 37.38,113.76 37.38,118.64"/>
        </clipPath>
        <linearGradient id="linearGradient302" x1="0" x2="1" y1="0" y2="0" gradientTransform="matrix(125.249,0,0,-125.249,2507.62,3133.32)" gradientUnits="userSpaceOnUse" spreadMethod="pad">
            <stop id="stop294" offset="0" style="stop-opacity:1;stop-color:#ffffff"/>
            <stop id="stop296" offset="0.5" style="stop-opacity:1;stop-color:#dedede"/>
            <stop id="stop298" offset="0.5" style="stop-opacity:1;stop-color:#dedede"/>
            <stop id="stop300" offset="1" style="stop-opacity:1;stop-color:#dedede"/>
        </linearGradient>
        <linearGradient id="linearGradient314" x1="0" x2="1" y1="0" y2="0" gradientTransform="matrix(785.786,0,0,-785.786,2485.41,2708.76)" gradientUnits="userSpaceOnUse" spreadMethod="pad">
            <stop id="stop306" offset="0" style="stop-opacity:1;stop-color:#8dcf24"/>
            <stop id="stop308" offset="0.5" style="stop-opacity:1;stop-color:#6dab2e"/>
            <stop id="stop310" offset="0.5" style="stop-opacity:1;stop-color:#6dab2e"/>
            <stop id="stop312" offset="1" style="stop-opacity:1;stop-color:#6dab2e"/>
        </linearGradient>
        <clipPath id="clipPath330" clipPathUnits="userSpaceOnUse">
            <path id="path328" d="m 1202.62,2292.5 h -124.94 v 209.12 h 124.94 z"/>
        </clipPath>
        <linearGradient id="linearGradient340" x1="0" x2="1" y1="0" y2="0" gradientTransform="matrix(124.941,0,0,-124.941,1077.68,2397.06)" gradientUnits="userSpaceOnUse" spreadMethod="pad">
            <stop id="stop332" offset="0" style="stop-opacity:1;stop-color:#91411c"/>
            <stop id="stop334" offset="0.49" style="stop-opacity:1;stop-color:#91411c"/>
            <stop id="stop336" offset="0.5" style="stop-opacity:1;stop-color:#6a3317"/>
            <stop id="stop338" offset="1" style="stop-opacity:1;stop-color:#6a3317"/>
        </linearGradient>
        <clipPath id="clipPath350" clipPathUnits="userSpaceOnUse">
            <path id="path348" d="m 1474.6,2458.13 -187.44,267.16 h 151.78 l -187.89,267.81 h 120.83 L 1140.11,3323.48 908.402,2993.1 H 1029.18 L 841.348,2725.29 h 151.726 l -187.41,-267.16 z"/>
        </clipPath>
        <linearGradient id="linearGradient360" x1="0" x2="1" y1="0" y2="0" gradientTransform="matrix(668.936,0,0,-668.936,805.664,2890.81)" gradientUnits="userSpaceOnUse" spreadMethod="pad">
            <stop id="stop352" offset="0" style="stop-opacity:1;stop-color:#8dcf24"/>
            <stop id="stop354" offset="0.49" style="stop-opacity:1;stop-color:#8dcf24"/>
            <stop id="stop356" offset="0.5" style="stop-opacity:1;stop-color:#6dab2e"/>
            <stop id="stop358" offset="1" style="stop-opacity:1;stop-color:#6dab2e"/>
        </linearGradient>
        <clipPath id="clipPath370" clipPathUnits="userSpaceOnUse">
            <path id="path368" d="M 665.973,2447.15 H 560.328 v 246.54 h 105.645 z"/>
        </clipPath>
        <linearGradient id="linearGradient380" x1="0" x2="1" y1="0" y2="0" gradientTransform="matrix(105.645,0,0,-105.645,560.327,2570.42)" gradientUnits="userSpaceOnUse" spreadMethod="pad">
            <stop id="stop372" offset="0" style="stop-opacity:1;stop-color:#91411c"/>
            <stop id="stop374" offset="0.49" style="stop-opacity:1;stop-color:#91411c"/>
            <stop id="stop376" offset="0.5" style="stop-opacity:1;stop-color:#6a3317"/>
            <stop id="stop378" offset="1" style="stop-opacity:1;stop-color:#6a3317"/>
        </linearGradient>
        <clipPath id="clipPath390" clipPathUnits="userSpaceOnUse">
            <path id="path388" d="m 880.918,2616.21 -152.422,260.62 h 103.59 L 609.664,3257.22 387.195,2876.83 h 110.61 l -152.41,-260.62 z"/>
        </clipPath>
        <linearGradient id="linearGradient400" x1="0" x2="1" y1="0" y2="0" gradientTransform="matrix(535.522,0,0,-535.522,345.396,2936.71)" gradientUnits="userSpaceOnUse" spreadMethod="pad">
            <stop id="stop392" offset="0" style="stop-opacity:1;stop-color:#247e3a"/>
            <stop id="stop394" offset="0.5" style="stop-opacity:1;stop-color:#1d582b"/>
            <stop id="stop396" offset="0.5" style="stop-opacity:1;stop-color:#1d582b"/>
            <stop id="stop398" offset="1" style="stop-opacity:1;stop-color:#1d582b"/>
        </linearGradient>
    </defs>
    <g id="g10" transform="matrix(1.3333333,0,0,-1.3333333,-1360,1153.33333)">
        <g id="g12" transform="scale(0.25)">
            <g id="g180">
                <g id="g182" clip-path="url(#clipPath186)">
                    <path id="path198" d="m 4540.76,2292.5 h 106.01 v 311.01 H 4540.76 V 2292.5" style="fill:url(#linearGradient196);fill-opacity:1;fill-rule:nonzero;stroke:none"/>
                </g>
            </g>
            <path id="path200" d="m 4613.84,2433.25 19.65,-32.02 150.15,190.44 -9.97,6.78 -159.83,-165.2" style="fill:#6a3417;fill-opacity:1;fill-rule:nonzero;stroke:none"/>
            <path id="path202" d="m 4549.87,2373.08 30.5,33.49 -173.24,192.68 -12.99,-14.21 155.73,-211.96" style="fill:#91411c;fill-opacity:1;fill-rule:nonzero;stroke:none"/>
            <g id="g204">
                <g id="g206" clip-path="url(#clipPath210)">
                    <path id="path222" d="m 4705.37,2609.14 c -61.62,-61.65 -161.54,-61.65 -223.15,0 l -148.8,148.77 c -65.71,65.67 -79.12,167.85 -32.66,248.23 l 214.07,370.5 c 35.09,60.75 122.81,60.75 157.88,0 l 214.06,-370.5 c 46.5,-80.38 33.07,-182.56 -32.61,-248.23 l -148.79,-148.77" style="fill:url(#linearGradient220);fill-opacity:1;fill-rule:nonzero;stroke:none"/>
                </g>
            </g>
            <g id="g224">
                <g id="g226" clip-path="url(#clipPath230)">
                    <path id="path242" d="m 4461.04,2593.3 c -1.82,-39.47 -35.3,-70 -74.75,-68.17 l -95.25,4.52 c -42.04,1.97 -77.68,32.04 -86.68,73.21 l -41.3,189.41 c -6.83,31.09 22.58,57.87 52.88,48.24 l 184.77,-58.87 c 40.11,-12.78 66.77,-51.08 64.79,-93.13 l -4.46,-95.21" style="fill:url(#linearGradient240);fill-opacity:1;fill-rule:nonzero;stroke:none"/>
                </g>
            </g>
            <g id="g244">
                <g id="g246" clip-path="url(#clipPath250)">
                    <path id="path262" d="m 4718.5,2573.55 c 1.48,-31.59 28.26,-56.01 59.81,-54.54 l 76.19,3.58 c 33.67,1.6 62.14,25.66 69.34,58.59 l 33.07,151.55 c 5.4,24.86 -18.09,46.27 -42.31,38.58 l -147.82,-47.1 c -32.07,-10.26 -53.39,-40.85 -51.82,-74.48 l 3.54,-76.18" style="fill:url(#linearGradient260);fill-opacity:1;fill-rule:nonzero;stroke:none"/>
                </g>
            </g>
            <!-- <path id="path264" d="m 3306.8,2943.66 c 0,-303.11 -249.31,-548.85 -556.8,-548.85 -307.5,0 -556.79,245.74 -556.79,548.85 0,303.1 249.29,548.84 556.79,548.84 307.49,0 556.8,-245.74 556.8,-548.84" style="fill:#b2e6f8;fill-opacity:1;fill-rule:nonzero;stroke:none"/> -->
            <!-- <g id="g266">
                <g id="g268" clip-path="url(#clipPath272)">
                    <path id="path284" d="m 2911.31,2292.5 -278.44,783.71 -48.19,46.76 -8.12,-74.76 c 0,0 -21.13,89.38 -21.13,84.5 0,-4.88 -37.38,-126.76 -37.38,-118.62 0,6.67 -7.69,48.53 -10.43,63.18 L 2228.8,2292.5 h 682.51" style="fill:url(#linearGradient282);fill-opacity:1;fill-rule:nonzero;stroke:none"/>
                </g>
            </g> -->
            <!-- <g id="g286">
                <g id="g288" clip-path="url(#clipPath292)">
                    <path id="path304" d="m 2555.43,3132.71 c 0,4.88 21.13,-84.5 21.13,-84.5 l 8.12,74.76 48.19,-46.76 -62.83,176.76 -62.42,-175.7 c 2.74,-14.65 10.43,-56.51 10.43,-63.2 0,-8.12 37.38,113.76 37.38,118.64" style="fill:url(#linearGradient302);fill-opacity:1;fill-rule:nonzero;stroke:none"/>
                </g>
            </g> -->
            <!-- <path id="path316" d="M 2878.3,3145.02 3271.19,2272.5 H 2485.41 Z" style="fill:url(#linearGradient314);fill-opacity:1;fill-rule:evenodd;stroke:none"/> -->
            <!-- <path id="path318" d="m 2661.96,2664.6 113.96,107.98 73.14,-318.77 61.39,342.16 134.53,-187.15 -3.08,172.87 -163.6,363.33 -216.34,-480.42 v 0" style="fill:#ffffff;fill-opacity:1;fill-rule:evenodd;stroke:none"/> -->
            <!-- <path id="path320" d="m 2878.3,2616.73 32.15,179.24 134.53,-187.15 -3.08,172.87 -163.6,363.33 v -528.29 0" style="fill:#d5d5d3;fill-opacity:1;fill-rule:evenodd;stroke:none"/> -->
            <!-- <path id="path322" d="m 1363.32,3050.64 c 0,-244.02 -200.7,-441.85 -448.257,-441.85 -247.567,0 -448.254,197.83 -448.254,441.85 0,244.02 200.687,441.86 448.254,441.86 247.557,0 448.257,-197.84 448.257,-441.86" style="fill:#f9d805;fill-opacity:1;fill-rule:nonzero;stroke:none"/> -->
            <!-- <g id="g324"> -->
                <!-- <g id="g326" clip-path="url(#clipPath330)"> -->
                    <!-- <path id="path342" d="m 1202.62,2292.5 h -124.94 v 209.12 h 124.94 V 2292.5" style="fill:url(#linearGradient340);fill-opacity:1;fill-rule:nonzero;stroke:none"/>
                </g>
            </g>
            <g id="g344">
                <g id="g346" clip-path="url(#clipPath350)">
                    <path id="path362" d="m 1474.6,2458.13 -187.44,267.16 h 151.78 l -187.89,267.81 h 120.83 L 1140.11,3323.48 908.402,2993.1 H 1029.18 L 841.348,2725.29 H 993.074 L 805.664,2458.13 H 1474.6" style="fill:url(#linearGradient360);fill-opacity:1;fill-rule:nonzero;stroke:none"/>
                </g>
            </g>
            <g id="g364">
                <g id="g366" clip-path="url(#clipPath370)">
                    <path id="path382" d="M 665.973,2447.15 H 560.328 v 246.54 h 105.645 v -246.54" style="fill:url(#linearGradient380);fill-opacity:1;fill-rule:nonzero;stroke:none"/>
                </g>
            </g>
            <g id="g384">
                <g id="g386" clip-path="url(#clipPath390)">
                    <path id="path402" d="m 880.918,2616.21 -152.422,260.62 h 103.59 L 609.664,3257.22 387.195,2876.83 h 110.61 l -152.41,-260.62 h 535.523" style="fill:url(#linearGradient400);fill-opacity:1;fill-rule:nonzero;stroke:none"/>
                </g>
            </g>
            <path id="path404" d="m 2856.11,218.07 c 2.78,0 5.34,-2.429 5.34,-2.429 l -45.84,-97.911 c -5.02,0 -17.07,-0.71 -20,-0.71 -2.79,0 -5.36,2.421 -5.36,2.421 l -15.66,97.911 c 9.5,0 21.39,0.718 24.95,0.718 2.78,0 5.34,-2.429 5.34,-2.429 l 4.79,-47.903 c 0.42,-4.129 0.45,-9.847 0.28,-15.879 1.54,6.59 3.23,12.821 4.89,17.032 l 19.07,48.468 c 8.44,0 18.94,0.711 22.19,0.711 h 0.01" style="fill:#d8d7d6;fill-opacity:1;fill-rule:nonzero;stroke:none"/>
            <path id="path406" d="m 2877.05,159.52 c 3.31,1.05 4.31,3.789 4.31,6.921 0,2.938 -0.95,7.36 -4.38,7.36 -6.17,0 -8.88,-9.961 -9.87,-17.422 z m 26.3,10.25 c 0,-10.668 -5.95,-17.719 -20.78,-20.77 l -15.56,-3.211 c 1.19,-6.711 5.41,-9.988 12.4,-9.988 8.58,0 14.32,6.48 14.32,6.48 0,0 4.38,-2.449 4.38,-7.461 0,-8.871 -13.64,-18.511 -29.48,-18.511 -16.07,0 -26.56,10.152 -26.56,27.312 0,19.82 14.03,46.699 39.02,46.699 13.69,0 22.26,-8.101 22.26,-20.55 v 0" style="fill:#d8d7d6;fill-opacity:1;fill-rule:nonzero;stroke:none"/>
            <path id="path408" d="m 2945.23,190.32 c 12.62,0 22.09,-6.679 22.09,-15.359 0,-10.852 -13.13,-14.813 -13.13,-14.813 0,0 -3.86,11.852 -12.69,11.852 -5.97,0 -9.42,-6.051 -9.42,-18.961 0,-11.891 3.13,-17.238 10.82,-17.238 7.89,0 12.74,5.379 12.74,5.379 0,0 4.38,-2.442 4.38,-7.301 0,-8.508 -13.09,-17.57 -28.31,-17.57 -16.22,0 -26.22,10.152 -26.22,27.043 0,20.089 14.35,46.968 39.76,46.968 h -0.02" style="fill:#d8d7d6;fill-opacity:1;fill-rule:nonzero;stroke:none"/>
            <path id="path410" d="m 3005.82,206.141 c 3.04,0 5.06,-2.309 5.06,-2.309 l -2.37,-14.934 h 15.82 l -3.57,-11.386 c -1.16,-3.672 -2.99,-5.692 -6.7,-5.692 h -8.26 l -4.61,-29.101 c -0.74,-4.699 0.28,-6.879 3.48,-6.918 2.91,-0.02 5.78,1.781 5.78,1.781 0,0 4.41,-2.461 4.41,-7.07 0,-7.133 -10.15,-14.203 -23,-14.203 -13.64,0 -19.15,8.351 -16.83,22.941 l 5.15,32.57 h -8.58 l 3.73,11.871 c 0.96,3.051 3.48,5.207 6.55,5.207 h 4.17 l 5,13.743 c 6.2,1.519 11.96,3.5 14.77,3.5 v 0" style="fill:#d8d7d6;fill-opacity:1;fill-rule:nonzero;stroke:none"/>
            <path id="path412" d="m 3056.33,159.52 c 3.32,1.05 4.31,3.789 4.31,6.921 0,2.938 -0.96,7.36 -4.38,7.36 -6.16,0 -8.9,-9.961 -9.87,-17.422 z m 26.3,10.25 c 0,-10.668 -5.95,-17.719 -20.77,-20.77 l -15.57,-3.211 c 1.2,-6.711 5.41,-9.988 12.4,-9.988 8.58,0 14.31,6.48 14.31,6.48 0,0 4.38,-2.449 4.38,-7.461 0,-8.871 -13.63,-18.511 -29.47,-18.511 -16.07,0 -26.56,10.152 -26.56,27.312 0,19.82 14.03,46.699 39.02,46.699 13.69,0 22.27,-8.101 22.27,-20.55 h -0.01" style="fill:#d8d7d6;fill-opacity:1;fill-rule:nonzero;stroke:none"/>
            <path id="path414" d="m 3119.79,159.52 c 3.33,1.05 4.32,3.789 4.32,6.921 0,2.938 -0.97,7.36 -4.38,7.36 -6.17,0 -8.89,-9.961 -9.87,-17.422 z m 26.3,10.25 c 0,-10.668 -5.94,-17.719 -20.77,-20.77 l -15.56,-3.211 c 1.2,-6.711 5.41,-9.988 12.4,-9.988 8.58,0 14.3,6.48 14.3,6.48 0,0 4.39,-2.449 4.39,-7.461 0,-8.871 -13.62,-18.511 -29.46,-18.511 -16.1,0 -26.59,10.152 -26.59,27.312 0,19.82 14.05,46.699 39.04,46.699 13.68,0 22.26,-8.101 22.26,-20.55 h -0.01" style="fill:#d8d7d6;fill-opacity:1;fill-rule:nonzero;stroke:none"/>
            <path id="path416" d="m 3198.02,143.18 c 0,0 5.34,-4.942 5.34,-13.11 0,-10.91 -9.23,-13.761 -16.97,-13.761 -10.08,0 -17.42,4.8 -25.08,7.402 -2.15,-2.461 -4.24,-4.941 -6.25,-7.402 0,0 -11.36,0.281 -11.36,8.031 0,9.441 15.73,25.629 32.69,43.98 -1.96,0.352 -3.83,0.59 -5.53,0.59 -9.63,0 -13.36,-4.82 -13.36,-4.82 0,0 -4.96,5.699 -4.55,13.129 0.57,10.281 10.35,13.101 18.03,13.101 8.15,0 14.13,-3.14 20.01,-5.718 l 4.77,5.718 c 0,0 11.47,-0.351 11.47,-8.129 0,-9.109 -15.24,-25.011 -31.69,-42.769 3.48,-0.961 6.73,-1.75 9.94,-1.75 8.54,0 12.54,5.508 12.54,5.508 v 0" style="fill:#d8d7d6;fill-opacity:1;fill-rule:nonzero;stroke:none"/>
            <path id="path418" d="M 3271.8,122.59 C 3267.71,97.6719 3250.63,85 3229,85 c -13.8,0 -24.12,7.25 -24.12,15.648 0,5.551 4.62,8.122 4.62,8.122 0,0 4.7,-4.282 13.96,-4.282 8.67,0 20.45,3.703 22.51,16.813 l 1.63,10.187 c -5.84,-8.367 -13.57,-15.179 -23.32,-15.179 -10.98,0 -15.86,8.972 -12.97,27.222 l 3.11,19.739 c 1.93,12.101 2.46,21.96 2.46,21.96 7.8,1.45 18.09,5.09 21.69,5.09 2.8,0 5.39,-2.328 5.39,-2.328 l -3.92,-24.722 -3.61,-22.801 c -0.34,-2.098 0.06,-3.278 1.97,-3.278 9.1,0 14.22,26.079 14.22,26.079 1.91,12.101 2.44,21.96 2.44,21.96 7.8,1.45 18.1,5.09 21.71,5.09 2.79,0 5.38,-2.328 5.38,-2.328 l -3.91,-24.722 -6.44,-40.68" style="fill:#d8d7d6;fill-opacity:1;fill-rule:nonzero;stroke:none"/>
            <path id="path420" d="m 2231.24,175.109 v -43.937 h 10 c 3.74,0 6.44,0.219 8.1,0.637 2.16,0.543 3.98,1.461 5.41,2.761 1.43,1.289 2.59,3.43 3.5,6.399 0.91,2.972 1.36,7.023 1.36,12.152 0,5.117 -0.45,9.059 -1.36,11.801 -0.91,2.75 -2.18,4.887 -3.8,6.43 -1.63,1.539 -3.69,2.578 -6.2,3.117 -1.86,0.422 -5.54,0.64 -10.98,0.64 z m -13.39,11.223 h 24.47 c 5.53,0 9.73,-0.434 12.63,-1.273 3.89,-1.137 7.22,-3.188 9.99,-6.11 2.78,-2.918 4.89,-6.508 6.34,-10.75 1.45,-4.238 2.18,-9.461 2.18,-15.668 0,-5.461 -0.69,-10.172 -2.04,-14.121 -1.65,-4.828 -4.03,-8.73 -7.1,-11.711 -2.33,-2.269 -5.47,-4.027 -9.42,-5.301 -2.95,-0.929 -6.9,-1.398 -11.85,-1.398 h -25.2 v 66.332" style="fill:#d8d7d6;fill-opacity:1;fill-rule:nonzero;stroke:none"/>
            <path id="path422" d="m 2311.42,148.129 c -0.09,3.691 -1.05,6.492 -2.87,8.402 -1.79,1.918 -4,2.867 -6.6,2.867 -2.77,0 -5.06,-1 -6.87,-3.019 -1.81,-2.02 -2.7,-4.77 -2.66,-8.25 z m -0.73,-12.84 12.67,-2.129 c -1.62,-4.64 -4.2,-8.18 -7.72,-10.609 -3.51,-2.422 -7.91,-3.629 -13.18,-3.629 -8.36,0 -14.54,2.719 -18.55,8.18 -3.17,4.367 -4.75,9.886 -4.75,16.558 0,7.961 2.07,14.199 6.23,18.699 4.17,4.512 9.43,6.77 15.8,6.77 7.15,0 12.79,-2.359 16.92,-7.078 4.14,-4.731 6.11,-11.949 5.92,-21.692 h -31.84 c 0.09,-3.769 1.11,-6.711 3.06,-8.8 1.98,-2.098 4.42,-3.137 7.34,-3.137 1.99,0 3.67,0.539 5.03,1.617 1.35,1.09 2.38,2.84 3.07,5.25" style="fill:#d8d7d6;fill-opacity:1;fill-rule:nonzero;stroke:none"/>
            <path id="path424" d="m 2328.07,133.711 12.75,1.937 c 0.55,-2.468 1.64,-4.347 3.3,-5.628 1.66,-1.282 3.99,-1.918 6.97,-1.918 3.29,0 5.77,0.597 7.43,1.796 1.11,0.852 1.67,1.981 1.67,3.403 0,0.969 -0.31,1.769 -0.91,2.39 -0.63,0.61 -2.05,1.168 -4.25,1.68 -10.25,2.27 -16.76,4.328 -19.5,6.199 -3.81,2.59 -5.71,6.2 -5.71,10.809 0,4.16 1.65,7.66 4.95,10.5 3.28,2.832 8.37,4.25 15.29,4.25 6.57,0 11.45,-1.07 14.65,-3.207 3.2,-2.141 5.41,-5.301 6.61,-9.5 l -12,-2.223 c -0.51,1.871 -1.48,3.301 -2.91,4.301 -1.43,0.988 -3.48,1.488 -6.14,1.488 -3.34,0 -5.74,-0.468 -7.18,-1.398 -0.97,-0.66 -1.45,-1.52 -1.45,-2.57 0,-0.911 0.42,-1.68 1.27,-2.321 1.14,-0.84 5.1,-2.027 11.88,-3.57 6.75,-1.539 11.49,-3.418 14.17,-5.66 2.66,-2.25 3.99,-5.41 3.99,-9.449 0,-4.399 -1.84,-8.188 -5.53,-11.36 -3.67,-3.16 -9.12,-4.738 -16.33,-4.738 -6.54,0 -11.72,1.316 -15.54,3.969 -3.81,2.66 -6.31,6.257 -7.48,10.82" style="fill:#d8d7d6;fill-opacity:1;fill-rule:nonzero;stroke:none"/>
            <path id="path426" d="m 2382.23,120 v 48.051 h 12.7 V 120 Z m 0,54.559 v 11.773 h 12.7 v -11.773 h -12.7" style="fill:#d8d7d6;fill-opacity:1;fill-rule:nonzero;stroke:none"/>
            <path id="path428" d="m 2416.29,145.02 c 0,-5.098 1,-8.84 2.97,-11.2 1.97,-2.371 4.41,-3.55 7.3,-3.55 3.11,0 5.73,1.21 7.87,3.652 2.15,2.418 3.21,6.008 3.21,10.777 0,4.981 -1.02,8.672 -3.07,11.082 -2.05,2.418 -4.65,3.617 -7.79,3.617 -3.04,0 -5.55,-1.179 -7.52,-3.546 -1.97,-2.364 -2.97,-5.981 -2.97,-10.832 z m -11.35,-28.18 14.51,-1.77 c 0.25,-1.691 0.8,-2.851 1.68,-3.492 1.21,-0.898 3.11,-1.359 5.71,-1.359 3.32,0 5.8,0.5 7.46,1.5 1.11,0.66 1.95,1.742 2.53,3.211 0.4,1.058 0.59,3 0.59,5.84 v 7.011 c -3.8,-5.191 -8.59,-7.781 -14.39,-7.781 -6.45,0 -11.57,2.719 -15.33,8.18 -2.96,4.32 -4.44,9.691 -4.44,16.121 0,8.039 1.94,14.199 5.82,18.449 3.87,4.25 8.69,6.379 14.45,6.379 5.94,0 10.85,-2.609 14.71,-7.82 v 6.742 h 11.9 V 124.93 c 0,-5.668 -0.47,-9.91 -1.41,-12.711 -0.94,-2.809 -2.25,-5.008 -3.94,-6.598 -1.68,-1.609 -3.94,-2.859 -6.76,-3.762 -2.82,-0.91 -6.39,-1.359 -10.71,-1.359 -8.14,0 -13.9,1.391 -17.32,4.191 -3.4,2.789 -5.12,6.321 -5.12,10.598 0,0.422 0.02,0.941 0.06,1.551" style="fill:#d8d7d6;fill-opacity:1;fill-rule:nonzero;stroke:none"/>
            <path id="path430" d="m 2504.56,120 h -12.7 v 24.52 c 0,5.191 -0.28,8.539 -0.82,10.062 -0.55,1.52 -1.43,2.707 -2.66,3.547 -1.21,0.851 -2.69,1.269 -4.41,1.269 -2.19,0 -4.17,-0.597 -5.92,-1.796 -1.75,-1.211 -2.95,-2.813 -3.6,-4.801 -0.64,-1.992 -0.97,-5.672 -0.97,-11.039 V 120 h -12.72 v 48.051 h 11.82 v -7.063 c 4.19,5.434 9.47,8.141 15.83,8.141 2.8,0 5.37,-0.508 7.68,-1.508 2.33,-1.019 4.09,-2.312 5.28,-3.871 1.19,-1.57 2.03,-3.352 2.49,-5.34 0.48,-1.988 0.7,-4.851 0.7,-8.551 V 120" style="fill:#d8d7d6;fill-opacity:1;fill-rule:nonzero;stroke:none"/>
            <path id="path432" d="m 2544.14,148.129 c -0.08,3.691 -1.03,6.492 -2.85,8.402 -1.8,1.918 -4,2.867 -6.6,2.867 -2.78,0 -5.06,-1 -6.88,-3.019 -1.8,-2.02 -2.69,-4.77 -2.66,-8.25 z m -0.72,-12.84 12.67,-2.129 c -1.63,-4.64 -4.2,-8.18 -7.71,-10.609 -3.52,-2.422 -7.91,-3.629 -13.18,-3.629 -8.36,0 -14.56,2.719 -18.56,8.18 -3.16,4.367 -4.75,9.886 -4.75,16.558 0,7.961 2.07,14.199 6.24,18.699 4.16,4.512 9.43,6.77 15.8,6.77 7.14,0 12.79,-2.359 16.91,-7.078 4.14,-4.731 6.11,-11.949 5.94,-21.692 h -31.86 c 0.09,-3.769 1.12,-6.711 3.07,-8.8 1.97,-2.098 4.41,-3.137 7.34,-3.137 1.98,0 3.65,0.539 5.02,1.617 1.35,1.09 2.38,2.84 3.07,5.25" style="fill:#d8d7d6;fill-opacity:1;fill-rule:nonzero;stroke:none"/>
            <path id="path434" d="m 2575.41,145.059 c 0,-5.129 0.71,-8.829 2.13,-11.118 2.05,-3.32 4.92,-4.98 8.59,-4.98 2.93,0 5.41,1.25 7.46,3.73 2.05,2.489 3.09,6.207 3.09,11.149 0,5.531 -1,9.492 -2.99,11.922 -1.99,2.418 -4.53,3.636 -7.64,3.636 -3.02,0 -5.54,-1.199 -7.58,-3.589 -2.04,-2.399 -3.06,-5.989 -3.06,-10.75 z M 2609.34,120 h -11.8 v 7.059 c -1.95,-2.739 -4.28,-4.789 -6.95,-6.129 -2.66,-1.34 -5.36,-2.008 -8.07,-2.008 -5.53,0 -10.25,2.207 -14.18,6.668 -3.95,4.441 -5.92,10.648 -5.92,18.609 0,8.141 1.92,14.34 5.74,18.571 3.84,4.242 8.7,6.359 14.54,6.359 5.37,0 10.01,-2.231 13.94,-6.699 v 23.902 h 12.7 V 120" style="fill:#d8d7d6;fill-opacity:1;fill-rule:nonzero;stroke:none"/>
            <path id="path436" d="m 2656,145.059 c 0,-4.969 0.78,-8.649 2.34,-11.039 2.21,-3.379 5.14,-5.059 8.79,-5.059 2.79,0 5.19,1.199 7.17,3.598 1.97,2.39 2.96,6.171 2.96,11.332 0,5.48 -1,9.441 -2.98,11.871 -1.99,2.418 -4.55,3.636 -7.66,3.636 -3.05,0 -5.58,-1.179 -7.6,-3.546 -2.02,-2.364 -3.02,-5.961 -3.02,-10.793 z M 2643.37,120 v 66.332 h 12.7 V 162.43 c 3.93,4.468 8.58,6.699 13.95,6.699 5.84,0 10.68,-2.117 14.51,-6.359 3.84,-4.231 5.76,-10.321 5.76,-18.25 0,-8.2 -1.95,-14.52 -5.87,-18.95 -3.89,-4.441 -8.64,-6.648 -14.22,-6.648 -2.74,0 -5.45,0.68 -8.13,2.058 -2.66,1.36 -4.96,3.391 -6.89,6.079 V 120 h -11.81" style="fill:#d8d7d6;fill-opacity:1;fill-rule:nonzero;stroke:none"/>
            <path id="path438" d="m 2692.64,168.051 h 13.53 l 11.49,-34.11 11.23,34.11 h 13.16 l -16.97,-46.242 -3.03,-8.368 c -1.11,-2.812 -2.19,-4.941 -3.19,-6.429 -1.01,-1.473 -2.18,-2.672 -3.49,-3.59 -1.31,-0.922 -2.93,-1.641 -4.84,-2.152 -1.92,-0.52 -4.08,-0.77 -6.49,-0.77 -2.44,0 -4.84,0.25 -7.18,0.77 l -1.14,9.949 c 1.99,-0.387 3.79,-0.59 5.38,-0.59 2.96,0 5.14,0.871 6.56,2.601 1.42,1.739 2.5,3.95 3.26,6.629 l -18.28,48.192" style="fill:#d8d7d6;fill-opacity:1;fill-rule:nonzero;stroke:none"/> -->
        </g>
    </g>
</svg>
