<?xml version="1.0" encoding="UTF-8" standalone="no"?>
<svg xmlns="http://www.w3.org/2000/svg" 
    xmlns:cc="http://creativecommons.org/ns#"
     xmlns:dc="http://purl.org/dc/elements/1.1/" 
     xmlns:rdf="http://www.w3.org/1999/02/22-rdf-syntax-ns#" 
     xmlns:svg="http://www.w3.org/2000/svg" 
     id="svg2" 
     width="766.6667" 
     height="650" version="1.1" 
     viewBox="0 0 766.6667 650" xml:space="preserve"
     style="border:1px solid black">
    <g id="g10" transform="matrix(1.3333333,0,0,-1.3333333,-850,800)">
        <g id="g12" transform="scale(0.14)">
            <path id="path20" d="m 5489,3473.5 -51.2,-553.03 c 0,0 -317.5,204.83 -399.4,624.72 -81.97,419.89 143.3,604.23 143.3,604.23 0,0 10.3,-481.34 307.3,-675.92" style="fill:#000;fill-opacity:1;fill-rule:nonzero;stroke:none"/>
            <path id="path22" d="m 6472.1,2172.86 -414.7,358.44 v 194.59 c 231.6,-57.13 441.8,-63.09 568.4,-59.38 v 1042.53 c -430.2,-10.24 -870.6,-163.85 -921.8,-266.27 -51.2,-102.41 -215,-1403.05 -215,-1403.05 51.2,-51.2 297,-296.99 297,-296.99 l 51.2,-430.13 c 177.9,-88.99 414.2,-126.37 581.6,-142.14 l 53.3,1002.4" style="fill:#000;fill-opacity:1;fill-rule:nonzero;stroke:none"/>
            <path id="path24" d="m 7762.5,3473.5 51.2,-553.03 c 0,0 317.5,204.83 399.4,624.72 82,419.89 -143.3,604.23 -143.3,604.23 0,0 -10.3,-481.34 -307.3,-675.92" style="fill:#bdbcbc;fill-opacity:1;fill-rule:nonzero;stroke:none"/>
            <path id="path26" d="m 6779.4,2172.86 414.7,358.44 v 194.59 c -231.6,-57.13 -441.8,-63.09 -568.3,-59.38 v 1042.53 c 430.1,-10.24 870.5,-163.85 921.7,-266.27 51.2,-102.41 215,-1403.05 215,-1403.05 -51.2,-51.2 -297,-296.99 -297,-296.99 l -51.2,-430.13 c -177.9,-88.99 -414.2,-126.37 -581.6,-142.14 l -53.3,1002.4" style="fill:#bdbcbc;fill-opacity:1;fill-rule:nonzero;stroke:none"/>
        </g>
    </g>
</svg>
