<svg 
    width="400px" height="400px" 
    xmlns="http://www.w3.org/2000/svg" version="1.1" 
    xmlns:xlink="http://www.w3.org/1999/xlink"
    viewBox="0 0 100 100"
>
    <defs>
        <clipPath id="half">
            <rect width="50" height="100" />
        </clipPath>
    </defs>
    <path 
        d="M 20 5
        a 10 1 0 0 0 60 0
        l 0 85
        a 10 1 0 0 1 -60 0
        Z"
        fill="white"
        stroke="#bdbcbc"
        stroke-width="3"
    />
    <path 
        d="M 20 5
        a 10 1 0 0 0 60 0
        l 0 85
        a 10 1 0 0 1 -60 0
        Z"
        fill="#bdbcbc"
        stroke="white"
        clip-path="url(#half)"
        stroke-width="3"
    />
    <path 
        fill="#bdbcbc"
        d="M 45 30
        l 0 20
        l -20 0
        l 0 10
        l 20 0
        l 0 20
        l 10 0
        l 0 -20
        l 20 0
        l 0 -10
        l -20 0
        l 0 -20
        z
        " 
    />
    <path 
        stroke-width="3"
        fill="white"
        clip-path="url(#half)"
        d="M 45 30
        l 0 20
        l -20 0
        l 0 10
        l 20 0
        l 0 20
        l 10 0
        l 0 -20
        l 20 0
        l 0 -10
        l -20 0
        l 0 -20
        z
        " 
    />
</svg>