<?xml version="1.0" encoding="utf-8"?>
<svg 
    width="400px" height="400px" 
    xmlns="http://www.w3.org/2000/svg" version="1.1" 
    xmlns:xlink="http://www.w3.org/1999/xlink"
    viewBox="0 0 100 100"
>
<defs>
	<clipPath id="half">
		<rect width="50" height="100" />
	</clipPath>
	<clipPath id="other-half">
		<rect x="50" width="50" height="100" />
	</clipPath>
</defs>
		<path d="M 20 5
				l 60 0
				a 2 2 0 0 1 2 2
				l 0 80
				a 2 2 0 0 1 -2 2
				l -60 0
				a 2 2 0 0 1 -2 -2
				l 0 -80
				a 2 2 0 0 1 2 -2
				"
			fill="ivory"
			stroke="none"
		/>
	<g
		clip-path="url(#half)"
	>
		<path d="M 25 8
				l -4 8
				l 4 8
				l 4 -8
				z
				"
			fill="red"
			stroke="none"
		/>
	<path d="M 25 15
			l -4 8
			l 4 8
			l 4 -8
			z
			"
		fill="red"
		stroke="none"
		transform="scale(2)"
	/>
	<text fill="red" x="-30" y="-76" transform="rotate(180)">A</text>
	</g>
	<g clip-path="url(#other-half)">
	<path d="M 70 70
			a 10 10 0 0 1 -4 6
			a 50 10 0 0 0 3 6 
			M 70 70
			a 10 10 0 0 0 4 6
			a 50 10 0 0 1 -3 6
			a 10 10 0 0 0 2 4
			l -6 0
			a 10 10 0 0 0 2 -4
			"
		fill="black"
		stroke="none"
		stroke-linejoin="round"
	/>
	<path d="M 25 15
			a 10 10 0 0 1 -4 6
			a 50 10 0 0 0 3 6 
			M 25 15
			a 10 10 0 0 0 4 6
			a 50 10 0 0 1 -3 6
			a 10 10 0 0 0 2 4
			l -6 0
			a 10 10 0 0 0 2 -4
			"
		fill="black"
		stroke="none"
		stroke-linejoin="round"
		transform="scale(2)"
	/>
	<text
		x="70"
		y="19"
	>A</text>
	</g>
</svg>
